<svg width="77" height="115" fill="none" xmlns="http://www.w3.org/2000/svg"><path opacity=".65" d="M0 100.423C9.902 110.303 21.265 115 34.413 115c22.888 0 41.88-16.845 41.88-39.197 0-12.148-5.52-23.648-14.447-30.775-7.954-6.479-17.694-8.584-26.46-8.584-3.083 0-6.492.324-8.765.81l1.786-17.817H70.61V0H10.55L3.247 60.092l13.635 1.943c4.87-4.05 11.2-6.155 16.72-6.155 5.356 0 10.226 1.458 13.797 4.535 4.383 3.726 6.98 9.233 6.98 15.388 0 5.83-2.435 11.014-6.33 14.577-3.734 3.402-8.604 5.183-13.636 5.183-7.63 0-14.61-3.887-19.48-9.07L0 100.423z" fill="#E9E9E9"/></svg>