<svg width="38" height="37" xmlns="http://www.w3.org/2000/svg"><g fill="none" fill-rule="evenodd" opacity=".48"><path d="M23.97 19.945l11.855 13.999c.466.466.466 1.23 0 1.697h0a1.205 1.205 0 01-1.697 0L19.977 23.938l3.993-3.993h0z" stroke="#28333D" stroke-width="1.774" stroke-linecap="square" stroke-linejoin="round"/><path d="M.888 19.727s-.024-1.256.34-3.114c0 0 .004.003.004-.005.44-.12 2.65-.905 4.774-.538 0 0-2.06-1.41-4.07-2.078.468-1.364 1.323-3.135 2.299-4.606 4.056-.066 8.26 3.074 8.26 3.074-3.721-4.777-3.33-8.004-3.33-8.004 1.012-.628 2.653-1.418 3.917-1.914C13.564 5 16.099 7.03 16.099 7.03c-.49-2.811.322-5.53.322-5.53a32.556 32.556 0 013.37-.612s-.995 9.563 5.584 17.652l-6.715 6.715S11.934 18.416.888 19.727h0z" stroke="#28333D" stroke-width="1.774" stroke-linecap="square" stroke-linejoin="round"/><path d="M3.882 26.289a1.311 1.311 0 110-2.622 1.311 1.311 0 010 2.622m5.155-.284a.86.86 0 110-1.72.86.86 0 010 1.72m-3.409 6.138a1.69 1.69 0 110-3.382 1.69 1.69 0 010 3.382" fill="#28333D"/></g></svg>