<svg width="41" height="37" fill="none" xmlns="http://www.w3.org/2000/svg"><path fill-rule="evenodd" clip-rule="evenodd" d="M32.667 5.936c.094-2.038 2.428-2.618 2.428-2.618-2.042-.28-2.367-2.212-2.416-2.64v.026c-.087 2.047-2.425 2.614-2.425 2.614 2.04.284 2.367 2.213 2.413 2.648v-.03zM32.68.642V.588a.448.448 0 000 .054zm-5.178 7.026s-3.539.863-3.68 3.967v.05c-.072-.66-.568-3.59-3.662-4.02 0 0 3.536-.863 3.677-3.97v-.032c.075.647.568 3.577 3.665 4.005zm8.946 15.797a38.83 38.83 0 00-3.333-.736l-6.238-7.883a.807.807 0 00-.524-.307l-13.36-2.129-5.117-6.372a.823.823 0 00-.627-.308.825.825 0 00-.622.296L.391 13.43a.828.828 0 00-.082.945l3.108 5.366c.047 2.25.8 3.901 1.759 5.098-3.7 1.286-4.888 4.766-4.942 4.934-.075.237-.688 2.244.435 3.278 1.123 1.033 3.04.212 3.653-.062 3.237-1.419 7.58.178 10.174 1.138l.015.005c.604.222 1.126.414 1.54.536 2.097.61 6.572 1.266 7.209 1.359l.068.01a32.58 32.58 0 003.885.284c2.7 0 3.417-.622 3.698-1.289.372-.872-.234-1.8-.868-2.327a.923.923 0 00-.154-.101c-.176-.088-.484-.353-.468-.5 0-.051.213-1.314 6.549-2.908 3.342-.839 4.745-1.728 4.692-2.97-.042-1.14-1.303-1.967-4.215-2.761zM5.052 19.518a.825.825 0 00-.112-.418l-2.93-5.035 5.22-6.211 4.695 5.862c.128.159.31.264.51.295l13.36 2.128 5.171 6.536h-4.994a3.702 3.702 0 00-1.351-1.39c-1.778-1.09-4.547-1.11-8.236-.055a.823.823 0 00-.434.404.836.836 0 00.302 1.07.812.812 0 00.579.11c3.955-1.13 5.922-.709 6.876-.158.297.164.552.394.749.672-1.067.983-4.994 3.757-14.609 2.785a7.14 7.14 0 01-2.481-1.343l-.18-.159c-1.11-1.002-2.136-2.598-2.136-5.093zm30.53 8.073c-5.132 1.288-7.607 2.667-7.789 4.332-.112 1.035.702 1.785 1.258 2.107.115.106.214.227.297.359-.299.158-1.513.537-5.807 0-.05 0-4.937-.71-7.035-1.32-.365-.106-.868-.29-1.448-.506l-.008-.002c-2.826-1.043-7.548-2.786-11.383-1.095-1.216.535-1.763.473-1.894.353-.206-.187-.161-.982.014-1.53.047-.142 1.17-3.38 4.753-4.112a8.932 8.932 0 002.972 1.553c.037.01.075.016.113.02 1.36.143 2.729.216 4.097.22 7.861 0 11.15-2.677 12.083-3.65h6.801c3.256.528 5.848 1.42 6.376 1.96-.208.192-.935.691-3.4 1.31z" fill="#fff"/></svg>