<svg width="43" height="44" fill="none" xmlns="http://www.w3.org/2000/svg"><path d="M21.006 43.343a20.844 20.844 0 01-11.67-3.58 21.187 21.187 0 01-7.737-9.53 21.452 21.452 0 01-1.195-12.27A21.31 21.31 0 016.152 7.09a20.937 20.937 0 0110.756-5.812 20.793 20.793 0 0112.136 1.209 21.056 21.056 0 019.427 7.821 21.402 21.402 0 013.54 11.798 21.378 21.378 0 01-6.159 15.01 20.914 20.914 0 01-14.846 6.227zm0-40.404c-3.75 0-7.415 1.125-10.533 3.23a19.124 19.124 0 00-6.983 8.602 19.363 19.363 0 00-1.08 11.075A19.231 19.231 0 007.6 35.66a18.897 18.897 0 009.707 5.245c3.678.74 7.49.36 10.954-1.09a19.005 19.005 0 008.509-7.06 19.297 19.297 0 00-2.368-24.188 18.879 18.879 0 00-13.396-5.616v-.012z" fill="#3D77EA"/><path d="M20.833 34.45a11.3 11.3 0 01-5.575-1.453 11.461 11.461 0 01-4.163-4.021l1.736-1.093a9.458 9.458 0 003.556 3.38 9.332 9.332 0 009.423-.302 9.48 9.48 0 003.336-3.601l1.794.977a11.569 11.569 0 01-4.22 4.464 11.402 11.402 0 01-5.887 1.65zm9.003-15.343h-3.518a1.02 1.02 0 01-.653-.337 1.041 1.041 0 010-1.383c.17-.19.402-.31.653-.337h3.518c.251.027.483.147.652.337a1.042 1.042 0 010 1.383 1.02 1.02 0 01-.652.337zm-14.153 0h-3.519a1.02 1.02 0 01-.652-.337 1.042 1.042 0 010-1.383c.169-.19.401-.31.652-.337h3.519c.25.027.483.147.652.337a1.042 1.042 0 010 1.383 1.02 1.02 0 01-.652.337z" fill="#3D77EA"/></svg>