<svg width="19" height="27" xmlns="http://www.w3.org/2000/svg"><g stroke="#3D77EA" fill="none" fill-rule="evenodd" stroke-linejoin="round"><path d="M11.598 14.22l.01.014c.478.58.766 1.325.766 2.131v5.858a3.372 3.372 0 01-3.357 3.365H3.962a3.372 3.372 0 01-3.357-3.365v-5.858c0-.824.297-1.583.793-2.168" stroke-linecap="round"/><path stroke-linecap="round" d="M11.606 14.232L7.228 6.939l-1.571-.003-4.267 7.278M15.675 4h2.778m-3.77 3.752l1.074 1.016m-1.074-7.312l.881-.85"/><path stroke-linecap="square" d="M12.015 3.877l-9.163.001 2.805 3.058 1.572.003 4.786-2z"/></g></svg>