<svg width="36" height="44" fill="none" xmlns="http://www.w3.org/2000/svg"><path d="M35.953 41.916l-4.2-14.33a.769.769 0 00.487-.057.807.807 0 00.27-.207.89.89 0 00.201-.658 17.435 17.435 0 00-1.204-4.53c-1.337-3.148-3.434-5.105-6.066-5.633-4.807-.962-4.515-3.22-4.515-3.292a.88.88 0 00.018-.174V9.89a5.036 5.036 0 001.422-1.803 5.31 5.31 0 00.503-2.283 5.382 5.382 0 00-.34-2A5.172 5.172 0 0021.48 2.1 4.875 4.875 0 0019.883.957a4.668 4.668 0 00-1.891-.401c-.65 0-1.293.136-1.892.401A4.875 4.875 0 0014.505 2.1a5.172 5.172 0 00-1.05 1.705 5.382 5.382 0 00-.34 2c-.003.792.17 1.574.506 2.284a5.02 5.02 0 001.426 1.802v3.149a.695.695 0 00.013.155c.014.096.297 2.349-4.506 3.31-2.631.524-4.729 2.471-6.063 5.63a17.494 17.494 0 00-1.214 4.529.89.89 0 00.047.391.851.851 0 00.21.327.783.783 0 00.702.205l-4.2 14.33a.891.891 0 00.121.752.817.817 0 00.285.253c.112.06.236.091.362.091h5.539a.422.422 0 00.087 0 .195.195 0 00.053 0 .652.652 0 00.094-.021h.033l.082-.037a.573.573 0 00.104-.063.38.38 0 00.06-.048.697.697 0 00.186-.242.555.555 0 00.046-.1v-.014l.497-1.352.15 1.095v.051l.013.077.02.075a.618.618 0 00.026.07c0 .025.02.047.032.069a.755.755 0 00.136.188c.051.054.108.1.17.139l.049.026a.887.887 0 00.2.07h4.538l.069-.017a.35.35 0 00.067-.021l.064-.03.058-.03c.016-.013.034-.023.05-.037a.813.813 0 00.304-.439.54.54 0 00.023-.09v-.026l.322-2.07.292 2.022v.04a.43.43 0 000 .054c.005.024.01.047.018.07a.435.435 0 00.028.078.587.587 0 00.074.143.47.47 0 00.046.065l.052.058c.03.026.064.048.1.066l.06.046a.397.397 0 00.059.038l.044.025.06.026.078.027c.02.007.04.012.062.014h6.185a.772.772 0 00.168-.019l.071-.02a.8.8 0 00.147-.065l.063-.04a.657.657 0 00.12-.104.862.862 0 00.23-.505l.098-.918.067.896a.817.817 0 00.12.378.58.58 0 00.038.063l.046.058a.554.554 0 00.051.054.384.384 0 00.058.05.803.803 0 00.264.14l.074.02c.05.01.1.015.151.015h6.604a.79.79 0 00.57-.248.871.871 0 00.235-.6v-1.255l.536 1.507.016.046a.694.694 0 00.053.121.638.638 0 00.115.16.582.582 0 00.115.106.642.642 0 00.175.102.673.673 0 00.2.053.618.618 0 00.095 0h3.68c.126 0 .25-.03.363-.09a.817.817 0 00.285-.253.891.891 0 00.122-.754l-.011.01zM5.975 22.784c1.127-2.64 2.76-4.195 4.878-4.617 2.581-.526 4.34-1.494 5.229-2.897a3.56 3.56 0 00.575-2.298v-3.52a.884.884 0 00-.102-.416.83.83 0 00-.282-.31 3.364 3.364 0 01-1.2-1.361 3.585 3.585 0 01.06-3.236 3.37 3.37 0 011.142-1.252 3.132 3.132 0 013.187-.136 3.33 3.33 0 011.235 1.15 3.604 3.604 0 01.261 3.348 3.413 3.413 0 01-1.244 1.491.83.83 0 00-.269.29.882.882 0 00-.11.386v3.566c-.079.814.125 1.63.574 2.298.888 1.405 2.645 2.379 5.226 2.907 2.11.421 3.75 1.976 4.877 4.616.311.738.565 1.501.759 2.282-6.88-3.933-13.601-3.633-18.172-2.62a30.462 30.462 0 00-7.4 2.695c.196-.81.455-1.601.776-2.366zm26.093 18.534l-1.914-5.385a.838.838 0 00-.356-.44.77.77 0 00-.54-.098.797.797 0 00-.476.29.875.875 0 00-.187.544v5.086h-5.06l-.668-8.898a.873.873 0 00-.226-.604.787.787 0 00-.565-.259.784.784 0 00-.573.238.87.87 0 00-.246.595l-.961 8.938h-4.62l-.96-6.654a.86.86 0 00-.268-.518.78.78 0 00-.524-.208.781.781 0 00-.52.202.86.86 0 00-.274.508l-1.035 6.656h-2.87l-.49-3.682a.864.864 0 00-.236-.49.773.773 0 00-.981-.115.84.84 0 00-.333.423L5.79 41.323H1.896l4.34-14.81c3.845-1.937 13.547-5.619 23.483-.108l4.37 14.918-2.021-.005z" fill="#fff"/></svg>